<mxfile host="app.diagrams.net" modified="2024-06-03T06:12:44.691Z" agent="Mozilla/5.0 (Windows NT 10.0; Win64; x64) AppleWebKit/537.36 (KHTML, like Gecko) Chrome/125.0.0.0 Safari/537.36" etag="cIbfyUsDDL4Dhtcm5Mhh" version="24.4.13" type="device">
  <diagram name="第 1 页" id="Ggvo661OqqvHamPnh1aC">
    <mxGraphModel dx="1221" dy="618" grid="1" gridSize="10" guides="1" tooltips="1" connect="1" arrows="1" fold="1" page="1" pageScale="1" pageWidth="827" pageHeight="1169" math="0" shadow="0">
      <root>
        <mxCell id="0" />
        <mxCell id="1" parent="0" />
        <mxCell id="2ytuz0vw5fblZUWjGe5h-1" value="&lt;font style=&quot;font-size: 18px;&quot;&gt;Base&lt;/font&gt;" style="ellipse;whiteSpace=wrap;html=1;aspect=fixed;" vertex="1" parent="1">
          <mxGeometry x="360" y="280" width="70" height="70" as="geometry" />
        </mxCell>
        <mxCell id="2ytuz0vw5fblZUWjGe5h-4" style="edgeStyle=orthogonalEdgeStyle;rounded=0;orthogonalLoop=1;jettySize=auto;html=1;exitX=1;exitY=0.5;exitDx=0;exitDy=0;entryX=0;entryY=0.5;entryDx=0;entryDy=0;endArrow=none;endFill=0;" edge="1" parent="1" source="2ytuz0vw5fblZUWjGe5h-2" target="2ytuz0vw5fblZUWjGe5h-3">
          <mxGeometry relative="1" as="geometry" />
        </mxCell>
        <mxCell id="2ytuz0vw5fblZUWjGe5h-6" style="rounded=0;orthogonalLoop=1;jettySize=auto;html=1;exitX=1;exitY=1;exitDx=0;exitDy=0;entryX=0;entryY=0;entryDx=0;entryDy=0;endArrow=none;endFill=0;" edge="1" parent="1" source="2ytuz0vw5fblZUWjGe5h-2" target="2ytuz0vw5fblZUWjGe5h-1">
          <mxGeometry relative="1" as="geometry" />
        </mxCell>
        <mxCell id="2ytuz0vw5fblZUWjGe5h-2" value="&lt;font style=&quot;font-size: 18px;&quot;&gt;True&lt;/font&gt;&lt;span style=&quot;color: rgba(0, 0, 0, 0); font-family: monospace; font-size: 0px; text-align: start; text-wrap: nowrap;&quot;&gt;%3CmxGraphModel%3E%3Croot%3E%3CmxCell%20id%3D%220%22%2F%3E%3CmxCell%20id%3D%221%22%20parent%3D%220%22%2F%3E%3CmxCell%20id%3D%222%22%20value%3D%22%26lt%3Bfont%20style%3D%26quot%3Bfont-size%3A%2018px%3B%26quot%3B%26gt%3BBase%26lt%3B%2Ffont%26gt%3B%22%20style%3D%22ellipse%3BwhiteSpace%3Dwrap%3Bhtml%3D1%3Baspect%3Dfixed%3B%22%20vertex%3D%221%22%20parent%3D%221%22%3E%3CmxGeometry%20x%3D%22370%22%20y%3D%22290%22%20width%3D%2270%22%20height%3D%2270%22%20as%3D%22geometry%22%2F%3E%3C%2FmxCell%3E%3C%2Froot%3E%3C%2FmxGraphModel%3E&lt;/span&gt;" style="ellipse;whiteSpace=wrap;html=1;aspect=fixed;" vertex="1" parent="1">
          <mxGeometry x="290" y="180" width="70" height="70" as="geometry" />
        </mxCell>
        <mxCell id="2ytuz0vw5fblZUWjGe5h-5" style="rounded=0;orthogonalLoop=1;jettySize=auto;html=1;exitX=0;exitY=1;exitDx=0;exitDy=0;entryX=1;entryY=0;entryDx=0;entryDy=0;endArrow=none;endFill=0;" edge="1" parent="1" source="2ytuz0vw5fblZUWjGe5h-3" target="2ytuz0vw5fblZUWjGe5h-1">
          <mxGeometry relative="1" as="geometry" />
        </mxCell>
        <mxCell id="2ytuz0vw5fblZUWjGe5h-3" value="&lt;font style=&quot;font-size: 18px;&quot;&gt;False&lt;/font&gt;" style="ellipse;whiteSpace=wrap;html=1;aspect=fixed;" vertex="1" parent="1">
          <mxGeometry x="430" y="180" width="70" height="70" as="geometry" />
        </mxCell>
      </root>
    </mxGraphModel>
  </diagram>
</mxfile>
